<svg width="24" height="24" viewBox="0 0 24 24" fill="none" xmlns="http://www.w3.org/2000/svg">
<path d="M8.84625 11.3463C8.67442 11.3463 8.53208 11.2898 8.41925 11.177C8.30642 11.0642 8.25 10.9218 8.25 10.75C8.25 10.5782 8.30642 10.4358 8.41925 10.323C8.53208 10.2102 8.67442 10.1538 8.84625 10.1538H15.1538C15.3256 10.1538 15.4679 10.2102 15.5807 10.323C15.6936 10.4358 15.75 10.5782 15.75 10.75C15.75 10.9218 15.6936 11.0642 15.5807 11.177C15.4679 11.2898 15.3256 11.3463 15.1538 11.3463H8.84625ZM9.84625 14.3463C9.67442 14.3463 9.53208 14.2898 9.41925 14.177C9.30642 14.0642 9.25 13.9218 9.25 13.75C9.25 13.5782 9.30642 13.4358 9.41925 13.323C9.53208 13.2102 9.67442 13.1537 9.84625 13.1537H14.1538C14.3256 13.1537 14.4679 13.2102 14.5807 13.323C14.6936 13.4358 14.75 13.5782 14.75 13.75C14.75 13.9218 14.6936 14.0642 14.5807 14.177C14.4679 14.2898 14.3256 14.3463 14.1538 14.3463H9.84625ZM3.30775 19.5C2.80908 19.5 2.38308 19.3234 2.02975 18.9703C1.67658 18.6169 1.5 18.1909 1.5 17.6923V6.30775C1.5 5.80908 1.67658 5.38308 2.02975 5.02975C2.38308 4.67658 2.80908 4.5 3.30775 4.5H20.6923C21.1909 4.5 21.6169 4.67658 21.9703 5.02975C22.3234 5.38308 22.5 5.80908 22.5 6.30775V17.6923C22.5 18.1909 22.3234 18.6169 21.9703 18.9703C21.6169 19.3234 21.1909 19.5 20.6923 19.5H3.30775ZM4.25 6H3.30775C3.21792 6 3.14417 6.02883 3.0865 6.0865C3.02883 6.14417 3 6.21792 3 6.30775V17.6923C3 17.7821 3.02883 17.8558 3.0865 17.9135C3.14417 17.9712 3.21792 18 3.30775 18H4.25V6ZM5.75 18H18.25V6H5.75V18ZM19.75 6V18H20.6923C20.7821 18 20.8558 17.9712 20.9135 17.9135C20.9712 17.8558 21 17.7821 21 17.6923V6.30775C21 6.21792 20.9712 6.14417 20.9135 6.0865C20.8558 6.02883 20.7821 6 20.6923 6H19.75Z" fill="white"/>
</svg>
