<svg width="24" height="24" viewBox="0 0 24 24" fill="none" xmlns="http://www.w3.org/2000/svg">
<path d="M8.94141 14.75C7.34524 14.75 5.98791 14.1907 4.86941 13.072C3.75074 11.9535 3.19141 10.5962 3.19141 9C3.19141 8.72433 3.21166 8.44708 3.25216 8.16825C3.29249 7.88942 3.36007 7.62242 3.45491 7.36725C3.51907 7.21342 3.60566 7.09967 3.71466 7.026C3.82349 6.95233 3.94649 6.89883 4.08366 6.8655C4.22099 6.83217 4.35916 6.83467 4.49816 6.873C4.63732 6.9115 4.76391 6.98783 4.87791 7.102L7.54141 9.74625L9.68766 7.6L7.05291 4.95575C6.93891 4.84158 6.86266 4.71342 6.82416 4.57125C6.78566 4.42892 6.78307 4.28917 6.81641 4.152C6.84974 4.01483 6.90491 3.89175 6.98191 3.78275C7.05874 3.67375 7.17091 3.58717 7.31841 3.523C7.57357 3.42183 7.83899 3.351 8.11466 3.3105C8.39016 3.27017 8.66574 3.25 8.94141 3.25C10.5376 3.25 11.895 3.80933 13.0137 4.928C14.1322 6.0465 14.6914 7.40383 14.6914 9C14.6914 9.42183 14.6517 9.81475 14.5722 10.1788C14.4927 10.5429 14.3734 10.8949 14.2144 11.2348L19.6492 16.6385C20.0683 17.0577 20.2779 17.5692 20.2779 18.173C20.2779 18.7768 20.0683 19.2884 19.6492 19.7078C19.23 20.1269 18.7185 20.3365 18.1147 20.3365C17.5108 20.3365 16.9992 20.1218 16.5799 19.6923L11.1762 14.273C10.8235 14.4257 10.4652 14.5433 10.1012 14.626C9.73699 14.7087 9.35041 14.75 8.94141 14.75Z" fill="white"/>
</svg>
