<svg width="12" height="12" viewBox="0 0 12 12" fill="none" xmlns="http://www.w3.org/2000/svg">
<path d="M1.11117 12C0.811167 12 0.550945 11.8898 0.3305 11.6695C0.110167 11.4491 0 11.1888 0 10.8888V8.08883H1.11117V10.8888H3.91117V12H1.11117ZM8.08883 12V10.8888H10.8888V8.08883H12V10.8888C12 11.1888 11.8898 11.4491 11.6695 11.6695C11.4491 11.8898 11.1888 12 10.8888 12H8.08883ZM0 3.91117V1.11117C0 0.811166 0.110167 0.550945 0.3305 0.3305C0.550945 0.110167 0.811167 0 1.11117 0H3.91117V1.11117H1.11117V3.91117H0ZM10.8888 3.91117V1.11117H8.08883V0H10.8888C11.1888 0 11.4491 0.110167 11.6695 0.3305C11.8898 0.550945 12 0.811166 12 1.11117V3.91117H10.8888Z" fill="#1E293B"/>
<path d="M2.66667 2.66667H9.33333V9.33333H2.66667V2.66667Z" fill="#1E293B"/>
</svg>
