<svg width="16" height="16" viewBox="0 0 16 16" fill="none" xmlns="http://www.w3.org/2000/svg">
<path d="M7.9995 9.27783C7.64795 9.27783 7.34717 9.15267 7.09717 8.90233C6.84717 8.652 6.72217 8.35106 6.72217 7.9995C6.72217 7.64794 6.84734 7.34717 7.09767 7.09717C7.348 6.84717 7.64895 6.72217 8.0005 6.72217C8.35206 6.72217 8.65284 6.84733 8.90284 7.09767C9.15284 7.348 9.27784 7.64894 9.27784 8.0005C9.27784 8.35206 9.15267 8.65283 8.90234 8.90283C8.652 9.15283 8.35106 9.27783 7.9995 9.27783ZM8 14C6.37411 14 4.98339 13.4398 3.82784 12.3195C2.67228 11.1991 2.06672 9.82961 2.01117 8.21117H3.13334C3.18522 9.52228 3.68061 10.6297 4.6195 11.5333C5.55839 12.437 6.68523 12.8888 8 12.8888C9.36189 12.8888 10.5172 12.4145 11.4658 11.4658C12.4145 10.5172 12.8888 9.36189 12.8888 8C12.8888 6.63811 12.4145 5.48283 11.4658 4.53417C10.5172 3.5855 9.36189 3.11117 8 3.11117C7.23334 3.11117 6.51667 3.28339 5.85 3.62783C5.18334 3.97228 4.60739 4.44078 4.12217 5.03333H5.88884V6.1445H2.2445V2.5H3.3555V4.2C3.93706 3.50367 4.63139 2.96294 5.4385 2.57783C6.24561 2.19261 7.09945 2 8 2C8.83334 2 9.61389 2.15833 10.3417 2.475C11.0694 2.79167 11.7028 3.21944 12.2417 3.75833C12.7806 4.29722 13.2083 4.93056 13.525 5.65833C13.8417 6.38611 14 7.16667 14 8C14 8.83333 13.8417 9.61389 13.525 10.3417C13.2083 11.0694 12.7806 11.7028 12.2417 12.2417C11.7028 12.7806 11.0694 13.2083 10.3417 13.525C9.61389 13.8417 8.83334 14 8 14Z" fill="#1E293B"/>
</svg>
