<svg width="52" height="52" viewBox="0 0 52 52" fill="none" xmlns="http://www.w3.org/2000/svg">
<rect width="52" height="52" rx="8" fill="#E2E8F0"/>
<path d="M34.5 31.661L33.2435 30.4045V19.065C33.2435 18.988 33.2115 18.9174 33.1475 18.8533C33.0833 18.7893 33.0128 18.7573 32.9358 18.7573H21.5963L20.3398 17.5008H32.9358C33.3656 17.5008 33.7338 17.654 34.0403 17.9605C34.3468 18.267 34.5 18.6352 34.5 19.065V31.661ZM34.3155 36.2545L32.5615 34.5008H19.0643C18.6344 34.5008 18.2663 34.3475 17.9598 34.041C17.6533 33.7345 17.5 33.3664 17.5 32.9365V19.4393L15.7565 17.6955L16.6513 16.8008L35.2103 35.3598L34.3155 36.2545ZM20.7025 30.788L23.1463 27.5943L25.1833 30.2368L26.561 28.4885L18.7565 20.684V32.9365C18.7565 33.0135 18.7885 33.0841 18.8525 33.1483C18.9167 33.2123 18.9873 33.2443 19.0643 33.2443H31.3168L28.8603 30.788H20.7025Z" fill="#475569"/>
</svg>
