<svg width="12" height="12" viewBox="0 0 12 12" fill="none" xmlns="http://www.w3.org/2000/svg">
<path d="M0.23327 4.72306L5.5666 0.160099C5.81611 -0.0533659 6.18389 -0.0533664 6.4334 0.160098L11.7667 4.72306C11.9148 4.84972 12 5.0348 12 5.22963V11.256C12 11.6242 11.7015 11.9226 11.3333 11.9226H8.16667C7.79848 11.9226 7.5 11.6242 7.5 11.256V8.2561C7.5 8.07201 7.35076 7.92277 7.16667 7.92277H4.83333C4.64924 7.92277 4.5 8.07201 4.5 8.2561V11.256C4.5 11.6242 4.20152 11.9226 3.83333 11.9226H0.666667C0.298477 11.9226 0 11.6242 0 11.256V5.22963C0 5.0348 0.0852277 4.84972 0.23327 4.72306Z" fill="white"/>
</svg>
