<svg width="40" height="40" viewBox="0 0 40 40" fill="none" xmlns="http://www.w3.org/2000/svg">
<g filter="url(#filter0_d_156_2126)">
<rect x="4" y="2" width="32" height="32" rx="16" fill="white" shape-rendering="crispEdges"/>
<path d="M19.25 25C17.7375 24.8103 16.4844 24.1432 15.4906 22.9986C14.4969 21.8541 14 20.5104 14 18.9675C14 18.1328 14.1625 17.3329 14.4875 16.5678C14.8125 15.8026 15.275 15.1355 15.875 14.5664L16.9438 15.6477C16.4688 16.0777 16.1094 16.5772 15.8656 17.1463C15.6219 17.7154 15.5 18.3225 15.5 18.9675C15.5 20.0804 15.85 21.0637 16.55 21.9173C17.25 22.771 18.15 23.2927 19.25 23.4824V25ZM20.75 25V23.4824C21.8375 23.28 22.7344 22.7552 23.4406 21.9079C24.1469 21.0605 24.5 20.0804 24.5 18.9675C24.5 17.7028 24.0625 16.6278 23.1875 15.7425C22.3125 14.8573 21.25 14.4146 20 14.4146H19.9438L20.7688 15.2493L19.7188 16.3117L17.0938 13.6558L19.7188 11L20.7688 12.0623L19.9438 12.897H20C21.675 12.897 23.0938 13.4851 24.2563 14.6612C25.4188 15.8374 26 17.2728 26 18.9675C26 20.4977 25.5031 21.8351 24.5094 22.9797C23.5156 24.1242 22.2625 24.7977 20.75 25Z" fill="#1E293B"/>
</g>
<defs>
<filter id="filter0_d_156_2126" x="0" y="0" width="40" height="40" filterUnits="userSpaceOnUse" color-interpolation-filters="sRGB">
<feFlood flood-opacity="0" result="BackgroundImageFix"/>
<feColorMatrix in="SourceAlpha" type="matrix" values="0 0 0 0 0 0 0 0 0 0 0 0 0 0 0 0 0 0 127 0" result="hardAlpha"/>
<feOffset dy="2"/>
<feGaussianBlur stdDeviation="2"/>
<feComposite in2="hardAlpha" operator="out"/>
<feColorMatrix type="matrix" values="0 0 0 0 0 0 0 0 0 0 0 0 0 0 0 0 0 0 0.1 0"/>
<feBlend mode="normal" in2="BackgroundImageFix" result="effect1_dropShadow_156_2126"/>
<feBlend mode="normal" in="SourceGraphic" in2="effect1_dropShadow_156_2126" result="shape"/>
</filter>
</defs>
</svg>
