<svg width="32" height="32" viewBox="0 0 32 32" fill="none" xmlns="http://www.w3.org/2000/svg">
<rect width="32" height="32" rx="8" fill="#F0F7FF"/>
<path d="M14.9374 17.4843L13.3989 15.9507C13.321 15.8727 13.2435 15.831 13.1666 15.8257C13.0896 15.8203 13.0122 15.8566 12.9343 15.9347C12.8455 16.0233 12.8012 16.1042 12.8012 16.1774C12.8012 16.2506 12.8455 16.3315 12.9343 16.4201L14.5287 18.0147C14.6495 18.1354 14.7857 18.1957 14.9374 18.1957C15.0891 18.1957 15.2253 18.1354 15.3462 18.0147L19.0655 14.2951C19.1329 14.2279 19.1719 14.1496 19.1826 14.0603C19.1933 13.9712 19.1543 13.8876 19.0655 13.8097C18.9876 13.7316 18.9128 13.6953 18.8412 13.7007C18.7696 13.706 18.6949 13.7477 18.617 13.8257L14.9374 17.4843ZM13.3285 22.9924L12.2114 21.1799L10.1441 20.723C9.99241 20.6921 9.87435 20.617 9.78991 20.4978C9.7056 20.3788 9.67199 20.2434 9.68908 20.0916L9.86533 17.9618L8.46303 16.4041C8.35942 16.2834 8.30762 16.1488 8.30762 16.0003C8.30762 15.8518 8.35942 15.7173 8.46303 15.5966L9.86533 14.0389L9.68908 11.9091C9.67199 11.7573 9.7056 11.6218 9.78991 11.5028C9.87435 11.3837 9.99241 11.3086 10.1441 11.2776L12.2114 10.8207L13.3285 9.00824C13.4043 8.88754 13.5076 8.79865 13.6385 8.74157C13.7694 8.68435 13.9091 8.68511 14.0576 8.74386L15.9999 9.58532L17.9422 8.74386C18.0907 8.68511 18.2304 8.68435 18.3614 8.74157C18.4922 8.79865 18.5955 8.88754 18.6714 9.00824L19.7885 10.8207L21.8557 11.2776C22.0074 11.3086 22.1255 11.3837 22.2099 11.5028C22.2942 11.6218 22.3278 11.7573 22.3107 11.9091L22.1345 14.0389L23.5368 15.5966C23.6404 15.7173 23.6922 15.8518 23.6922 16.0003C23.6922 16.1488 23.6404 16.2834 23.5368 16.4041L22.1345 17.9618L22.3107 20.0916C22.3278 20.2434 22.2942 20.3788 22.2099 20.4978C22.1255 20.617 22.0074 20.6921 21.8557 20.723L19.7885 21.1799L18.6714 22.9924C18.5955 23.1131 18.4922 23.202 18.3614 23.2591C18.2304 23.3163 18.0907 23.3155 17.9422 23.2568L15.9999 22.4153L14.0576 23.2568C13.9091 23.3155 13.7694 23.3163 13.6385 23.2591C13.5076 23.202 13.4043 23.1131 13.3285 22.9924Z" fill="#1C8CF4"/>
</svg>
