<svg width="32" height="32" viewBox="0 0 32 32" fill="none" xmlns="http://www.w3.org/2000/svg">
<rect width="32" height="32" rx="8" fill="#F0F7FF"/>
<path d="M13.0775 22.9096C12.1646 22.516 11.3704 21.9818 10.695 21.3071C10.0196 20.6324 9.48493 19.8389 9.09104 18.9267C8.69701 18.0146 8.5 17.0399 8.5 16.0027C8.5 14.9656 8.69681 13.9906 9.09042 13.0775C9.48403 12.1646 10.0182 11.3704 10.6929 10.695C11.3676 10.0196 12.1611 9.48493 13.0733 9.09104C13.9854 8.69701 14.9601 8.5 15.9973 8.5C17.0344 8.5 18.0094 8.69681 18.9225 9.09042C19.8354 9.48403 20.6296 10.0182 21.305 10.6929C21.9804 11.3676 22.5151 12.1611 22.909 13.0733C23.303 13.9854 23.5 14.9601 23.5 15.9973C23.5 17.0344 23.3032 18.0094 22.9096 18.9225C22.516 19.8354 21.9818 20.6296 21.3071 21.305C20.6324 21.9804 19.8389 22.5151 18.9267 22.909C18.0146 23.303 17.0399 23.5 16.0027 23.5C14.9656 23.5 13.9906 23.3032 13.0775 22.9096ZM18.9487 18.9488C19.7607 18.1368 20.1667 17.1553 20.1667 16.0044C20.1667 15.4173 20.0588 14.8734 19.8429 14.3727C19.6271 13.8722 19.329 13.4317 18.9487 13.0513L18.3542 13.6458C18.6597 13.9514 18.8993 14.3056 19.0729 14.7083C19.2465 15.1111 19.3333 15.5417 19.3333 16C19.3333 16.9167 19.0069 17.7014 18.3542 18.3542C17.7014 19.0069 16.9167 19.3333 16 19.3333C15.0833 19.3333 14.2986 19.0069 13.6458 18.3542C12.9931 17.7014 12.6667 16.9167 12.6667 16C12.6667 15.5417 12.7535 15.1111 12.9271 14.7083C13.1007 14.3056 13.3403 13.9514 13.6458 13.6458L13.0512 13.0513C12.671 13.4317 12.3729 13.8722 12.1571 14.3727C11.9413 14.8734 11.8333 15.4173 11.8333 16.0044C11.8333 17.1553 12.2381 18.1368 13.0475 18.9488C13.8569 19.7607 14.8399 20.1667 15.9963 20.1667C17.1526 20.1667 18.1368 19.7607 18.9487 18.9488ZM15.5833 16H16.4167V11.8333H15.5833V16Z" fill="#1C8CF4"/>
</svg>
