<svg width="16" height="16" viewBox="0 0 16 16" fill="none" xmlns="http://www.w3.org/2000/svg">
<path d="M11.3333 8.00065C10.4111 8.00065 9.625 7.67565 8.975 7.02565C8.325 6.37565 8 5.58954 8 4.66732C8 3.75621 8.32222 2.97287 8.96667 2.31732C9.61111 1.66176 10.4 1.33398 11.3333 1.33398C12.2556 1.33398 13.0417 1.65898 13.6917 2.30898C14.3417 2.95898 14.6667 3.7451 14.6667 4.66732C14.6667 5.58954 14.3417 6.37565 13.6917 7.02565C13.0417 7.67565 12.2556 8.00065 11.3333 8.00065ZM11 5.33398H11.6667V2.66732H11V5.33398ZM11.3333 6.66732C11.4222 6.66732 11.5 6.63398 11.5667 6.56732C11.6333 6.50065 11.6667 6.42287 11.6667 6.33398C11.6667 6.2451 11.6333 6.16732 11.5667 6.10065C11.5 6.03398 11.4222 6.00065 11.3333 6.00065C11.2444 6.00065 11.1667 6.03398 11.1 6.10065C11.0333 6.16732 11 6.2451 11 6.33398C11 6.42287 11.0333 6.50065 11.1 6.56732C11.1667 6.63398 11.2444 6.66732 11.3333 6.66732ZM5.04167 11.0423C5.23611 10.8479 5.33334 10.6118 5.33334 10.334C5.33334 10.0562 5.23611 9.8201 5.04167 9.62565C4.84722 9.43121 4.61111 9.33398 4.33334 9.33398C4.05556 9.33398 3.81945 9.43121 3.625 9.62565C3.43056 9.8201 3.33334 10.0562 3.33334 10.334C3.33334 10.6118 3.43056 10.8479 3.625 11.0423C3.81945 11.2368 4.05556 11.334 4.33334 11.334C4.61111 11.334 4.84722 11.2368 5.04167 11.0423ZM9.70833 11.0423C9.90278 10.8479 10 10.6118 10 10.334C10 10.0562 9.90278 9.8201 9.70833 9.62565C9.51389 9.43121 9.27778 9.33398 9 9.33398C8.72222 9.33398 8.48611 9.43121 8.29167 9.62565C8.09722 9.8201 8 10.0562 8 10.334C8 10.6118 8.09722 10.8479 8.29167 11.0423C8.48611 11.2368 8.72222 11.334 9 11.334C9.27778 11.334 9.51389 11.2368 9.70833 11.0423ZM2.66667 14.6673C2.47778 14.6673 2.31945 14.6034 2.19167 14.4756C2.06389 14.3479 2 14.1895 2 14.0007V12.634C1.77778 12.4007 1.61111 12.1423 1.5 11.859C1.38889 11.5757 1.33334 11.2895 1.33334 11.0007V4.66732C1.33334 3.67843 1.79167 2.98676 2.70834 2.59232C3.625 2.19787 5.22778 2.00065 7.51667 2.00065C7.25 2.37843 7.04167 2.79232 6.89167 3.24232C6.74167 3.69232 6.66667 4.16732 6.66667 4.66732C6.66667 4.78954 6.66945 4.90343 6.675 5.00898C6.68056 5.11454 6.69445 5.22287 6.71667 5.33398H2.66667V7.33398H7.51667C7.93889 7.93398 8.48056 8.41732 9.14167 8.78398C9.80278 9.15065 10.5333 9.33398 11.3333 9.33398C11.4556 9.33398 11.5694 9.33121 11.675 9.32565C11.7806 9.3201 11.8889 9.30621 12 9.28398V11.0007C12 11.2895 11.9444 11.5757 11.8333 11.859C11.7222 12.1423 11.5556 12.4007 11.3333 12.634V14.0007C11.3333 14.1895 11.2694 14.3479 11.1417 14.4756C11.0139 14.6034 10.8556 14.6673 10.6667 14.6673H10C9.81111 14.6673 9.65278 14.6034 9.525 14.4756C9.39722 14.3479 9.33334 14.1895 9.33334 14.0007V13.334H4V14.0007C4 14.1895 3.93611 14.3479 3.80834 14.4756C3.68056 14.6034 3.52222 14.6673 3.33334 14.6673H2.66667Z" fill="#94A3B8"/>
</svg>
