<svg width="32" height="32" viewBox="0 0 32 32" fill="none" xmlns="http://www.w3.org/2000/svg">
<rect width="32" height="32" rx="8" fill="#F0F7FF"/>
<path d="M18.9167 19.0775H21.5769V16.4173H20.8398V18.3404H18.9167V19.0775ZM10.4231 13.9173H11.1602V11.9942H13.0833V11.2571H10.4231V13.9173ZM13.5 22.6673V21.0007H9.84625C9.46264 21.0007 9.14236 20.8722 8.88542 20.6152C8.62847 20.3583 8.5 20.038 8.5 19.6544V10.6802C8.5 10.2966 8.62847 9.97635 8.88542 9.7194C9.14236 9.46246 9.46264 9.33398 9.84625 9.33398H22.1538C22.5374 9.33398 22.8576 9.46246 23.1146 9.7194C23.3715 9.97635 23.5 10.2966 23.5 10.6802V19.6544C23.5 20.038 23.3715 20.3583 23.1146 20.6152C22.8576 20.8722 22.5374 21.0007 22.1538 21.0007H18.5V22.6673H13.5Z" fill="#1C8CF4"/>
</svg>
