<svg width="16" height="11" viewBox="0 0 16 11" fill="none" xmlns="http://www.w3.org/2000/svg">
<path d="M10.1021 10.3333C8.66681 10.3333 7.4459 9.83007 6.43937 8.82354C5.43285 7.81701 4.92958 6.59611 4.92958 5.16083C4.92958 3.73625 5.43285 2.52 6.43937 1.51208C7.4459 0.504028 8.66681 0 10.1021 0C11.5265 0 12.7428 0.504028 13.7508 1.51208C14.7589 2.52 15.2629 3.73625 15.2629 5.16083C15.2629 6.59611 14.7589 7.81701 13.7508 8.82354C12.7428 9.83007 11.5265 10.3333 10.1021 10.3333ZM10.0858 9.66667C11.3428 9.66667 12.4088 9.23264 13.2838 8.36458C14.1588 7.49653 14.5963 6.43403 14.5963 5.17708C14.5963 3.92014 14.1588 2.85417 13.2838 1.97917C12.4088 1.10417 11.3463 0.666667 10.0963 0.666667C8.83236 0.666667 7.76639 1.10417 6.89833 1.97917C6.03028 2.85417 5.59625 3.91667 5.59625 5.16667C5.59625 6.43056 6.03028 7.49653 6.89833 8.36458C7.76639 9.23264 8.82889 9.66667 10.0858 9.66667ZM10.4254 5.04938V2.75813C10.4254 2.66326 10.3931 2.58368 10.3283 2.51937C10.2636 2.45521 10.1846 2.42313 10.0913 2.42313C9.99792 2.42313 9.91986 2.45451 9.85708 2.51729C9.79431 2.58021 9.76292 2.65812 9.76292 2.75104V5.05146C9.76292 5.12465 9.77222 5.19771 9.79083 5.27063C9.80958 5.3434 9.85507 5.41618 9.92729 5.48896L11.7333 7.29188C11.8 7.36757 11.8765 7.40542 11.9627 7.40542C12.0488 7.40542 12.1285 7.36646 12.2019 7.28854C12.2799 7.21507 12.319 7.13792 12.319 7.05708C12.319 6.97625 12.281 6.89806 12.205 6.8225L10.4254 5.04938ZM1.33875 2.25C1.24486 2.25 1.16493 2.2184 1.09896 2.15521C1.03299 2.09215 1 2.01389 1 1.92042C1 1.82708 1.03181 1.74757 1.09542 1.68187C1.15889 1.61618 1.23757 1.58333 1.33146 1.58333H3.34063C3.43465 1.58333 3.51465 1.61493 3.58063 1.67812C3.6466 1.74118 3.67958 1.81944 3.67958 1.91292C3.67958 2.00625 3.64778 2.08576 3.58417 2.15146C3.52069 2.21715 3.44194 2.25 3.34792 2.25H1.33875ZM0.333333 5.5C0.238889 5.5 0.159722 5.4684 0.0958333 5.40521C0.0319444 5.34215 0 5.26389 0 5.17042C0 5.07708 0.0319444 4.99757 0.0958333 4.93188C0.159722 4.86618 0.238889 4.83333 0.333333 4.83333H3.34625C3.44069 4.83333 3.51986 4.86493 3.58375 4.92812C3.64764 4.99118 3.67958 5.06944 3.67958 5.16292C3.67958 5.25625 3.64764 5.33576 3.58375 5.40146C3.51986 5.46715 3.44069 5.5 3.34625 5.5H0.333333ZM1.33875 8.75C1.24486 8.75 1.16493 8.7184 1.09896 8.65521C1.03299 8.59215 1 8.51389 1 8.42042C1 8.32708 1.03181 8.24757 1.09542 8.18188C1.15889 8.11618 1.23757 8.08333 1.33146 8.08333H3.34063C3.43465 8.08333 3.51465 8.11493 3.58063 8.17813C3.6466 8.24118 3.67958 8.31944 3.67958 8.41292C3.67958 8.50625 3.64778 8.58576 3.58417 8.65146C3.52069 8.71715 3.44194 8.75 3.34792 8.75H1.33875Z" fill="#F5145B"/>
</svg>
