<svg width="32" height="32" viewBox="0 0 32 32" fill="none" xmlns="http://www.w3.org/2000/svg">
<rect width="32" height="32" rx="8" fill="#F0F7FF"/>
<path d="M15.9678 16.834C15.7445 16.834 15.5498 16.7509 15.3837 16.5848C15.2176 16.4187 15.1345 16.224 15.1345 16.0007C15.1345 15.7773 15.2176 15.5826 15.3837 15.4165C15.5498 15.2504 15.7445 15.1673 15.9678 15.1673C16.1912 15.1673 16.3859 15.2504 16.552 15.4165C16.7181 15.5826 16.8012 15.7773 16.8012 16.0007C16.8012 16.224 16.7181 16.4187 16.552 16.5848C16.3859 16.7509 16.1912 16.834 15.9678 16.834ZM15.9678 22.6673C14.2723 22.6673 12.7963 22.112 11.5399 21.0015C10.2835 19.8909 9.55653 18.5018 9.35889 16.834H10.2018C10.4283 18.2677 11.0841 19.4595 12.1691 20.4094C13.254 21.3591 14.5202 21.834 15.9678 21.834C17.5928 21.834 18.9713 21.268 20.1033 20.1361C21.2352 19.0041 21.8012 17.6257 21.8012 16.0007C21.8012 14.3757 21.2352 12.9972 20.1033 11.8652C18.9713 10.7333 17.5928 10.1673 15.9678 10.1673C15.1056 10.1673 14.2953 10.3495 13.5368 10.7138C12.7782 11.0781 12.1088 11.5797 11.5287 12.2186H13.5962V13.0519H10.1345V9.59044H10.9678V11.5809C11.6122 10.8735 12.3672 10.3222 13.2331 9.9269C14.099 9.53162 15.0106 9.33398 15.9678 9.33398C16.892 9.33398 17.7582 9.50787 18.5664 9.85565C19.3746 10.2034 20.0808 10.6794 20.6849 11.2836C21.2891 11.8877 21.7651 12.5939 22.1128 13.4021C22.4606 14.2103 22.6345 15.0765 22.6345 16.0007C22.6345 16.9248 22.4606 17.791 22.1128 18.5992C21.7651 19.4074 21.2891 20.1136 20.6849 20.7177C20.0808 21.3219 19.3746 21.7979 18.5664 22.1457C17.7582 22.4934 16.892 22.6673 15.9678 22.6673Z" fill="#1C8CF4"/>
</svg>
