<svg width="80" height="80" viewBox="0 0 80 80" fill="none" xmlns="http://www.w3.org/2000/svg">
<rect width="80" height="80" rx="40" fill="#F8FAFC"/>
<g clip-path="url(#clip0_442_1705)">
<path d="M26.7357 35.7188H16.8208C16.8208 46.9859 25.8657 56.1156 37.0281 56.1156C31.3429 56.1156 26.7357 46.9859 26.7357 35.7188Z" fill="white" stroke="#94A3B8" stroke-width="2"/>
<path d="M37.0281 15.3281C25.8657 15.3281 16.8208 24.4578 16.8208 35.7194H26.7357C26.7357 24.4578 31.3429 15.3281 37.0281 15.3281Z" fill="white" stroke="#94A3B8" stroke-width="2"/>
<path d="M37.0281 15.3281C42.7133 15.3281 47.3206 24.4578 47.3206 35.7194H57.2355C57.2355 24.4578 48.1851 15.3281 37.0281 15.3281Z" fill="white" stroke="#94A3B8" stroke-width="2"/>
<path d="M37.0281 56.1234C48.1851 56.1234 57.2355 46.9937 57.2355 35.7266H47.3206C47.3206 46.9937 42.7133 56.1234 37.0281 56.1234Z" fill="white" stroke="#94A3B8" stroke-width="2"/>
<path d="M47.3206 35.7194C47.3206 24.4578 42.7133 15.3281 37.0281 15.3281V35.7194H47.3206Z" fill="white" stroke="#94A3B8" stroke-width="2"/>
<path d="M47.3206 35.7188H37.0281V56.1156C42.7133 56.1156 47.3206 46.9859 47.3206 35.7188Z" fill="white" stroke="#94A3B8" stroke-width="2"/>
<path d="M26.7357 35.7194H37.0281V15.3281C31.3429 15.3281 26.7357 24.4578 26.7357 35.7194Z" fill="white" stroke="#94A3B8" stroke-width="2"/>
<path d="M26.7357 35.7188C26.7357 46.9859 31.3429 56.1156 37.0281 56.1156V35.7188H26.7357Z" fill="white" stroke="#94A3B8" stroke-width="2"/>
<path d="M61.5911 43.5117H42.9705C41.5424 43.5117 40.3824 44.6826 40.3824 46.1241V57.7889C40.3824 59.236 41.5424 60.4014 42.9705 60.4014H48.0593V65.6704L53.8211 60.4014H61.5911C63.0192 60.4014 64.1793 59.236 64.1793 57.7889V46.1241C64.1793 44.6771 63.0192 43.5117 61.5911 43.5117Z" fill="#1C8CF4" stroke="#1C8CF4" stroke-width="2" stroke-linecap="round" stroke-linejoin="round"/>
<path d="M47.8185 49.6602H56.7485" stroke="white" stroke-width="2" stroke-linecap="round" stroke-linejoin="round"/>
<path d="M47.8185 54.0117H56.7485" stroke="white" stroke-width="2" stroke-linecap="round" stroke-linejoin="round"/>
</g>
<defs>
<clipPath id="clip0_442_1705">
<rect width="49" height="52" fill="white" transform="translate(16 14.5)"/>
</clipPath>
</defs>
</svg>
