<svg width="32" height="32" viewBox="0 0 32 32" fill="none" xmlns="http://www.w3.org/2000/svg">
<rect width="32" height="32" rx="8" fill="#F0F7FF"/>
<path d="M11.513 23.5C11.1427 23.5 10.8258 23.3682 10.5622 23.1046C10.2986 22.841 10.1667 22.524 10.1667 22.1538V14.8463C10.1667 14.476 10.2986 14.159 10.5622 13.8954C10.8258 13.6318 11.1427 13.5 11.513 13.5H12.6667V11.8333C12.6667 10.9049 12.9902 10.1172 13.6372 9.47042C14.284 8.82347 15.0716 8.5 16.0001 8.5C16.9286 8.5 17.7162 8.82347 18.363 9.47042C19.0099 10.1172 19.3334 10.9049 19.3334 11.8333V13.5H20.4872C20.8574 13.5 21.1744 13.6318 21.438 13.8954C21.7016 14.159 21.8334 14.476 21.8334 14.8463V22.1538C21.8334 22.524 21.7016 22.841 21.438 23.1046C21.1744 23.3682 20.8574 23.5 20.4872 23.5H11.513ZM16.8886 19.3885C17.1296 19.1477 17.2501 18.8515 17.2501 18.5C17.2501 18.1485 17.1296 17.8523 16.8886 17.6115C16.6478 17.3705 16.3516 17.25 16.0001 17.25C15.6486 17.25 15.3524 17.3705 15.1115 17.6115C14.8706 17.8523 14.7501 18.1485 14.7501 18.5C14.7501 18.8515 14.8706 19.1477 15.1115 19.3885C15.3524 19.6295 15.6486 19.75 16.0001 19.75C16.3516 19.75 16.6478 19.6295 16.8886 19.3885ZM13.5001 13.5H18.5001V11.8333C18.5001 11.1389 18.257 10.5486 17.7709 10.0625C17.2848 9.57639 16.6945 9.33333 16.0001 9.33333C15.3056 9.33333 14.7154 9.57639 14.2292 10.0625C13.7431 10.5486 13.5001 11.1389 13.5001 11.8333V13.5Z" fill="#1C8CF4"/>
</svg>
