<svg width="15" height="12" viewBox="0 0 15 12" fill="none" xmlns="http://www.w3.org/2000/svg">
<path d="M13.4856 6.71792L9.03521 11.1683C9.00785 11.195 8.97528 11.2185 8.9375 11.2388C8.89972 11.259 8.85667 11.2692 8.80833 11.2692H8.59563C8.54257 11.2692 8.50056 11.2537 8.46958 11.2227C8.43861 11.1917 8.42313 11.1497 8.42313 11.0967V10.884C8.42313 10.8356 8.43326 10.7926 8.45354 10.7548C8.47382 10.717 8.49729 10.6844 8.52396 10.6571L12.9744 6.20667L13.4856 6.71792ZM0 8.15375V1.17958C0 0.855139 0.115486 0.577431 0.346458 0.346458C0.577431 0.115486 0.855139 0 1.17958 0H13.1538C13.4782 0 13.7559 0.115486 13.9869 0.346458C14.2178 0.577431 14.3333 0.855139 14.3333 1.17958V3.20188C14.3333 3.49993 14.2886 3.70479 14.1992 3.81646C14.1099 3.92813 13.9718 4.06944 13.785 4.24042H13.7675C13.7408 4.24042 13.7147 4.24306 13.6892 4.24833C13.6635 4.25375 13.633 4.2741 13.5977 4.30937L12.431 5.47604C12.3103 5.59674 12.1777 5.68646 12.0331 5.74521C11.8885 5.80396 11.7365 5.83333 11.5769 5.83333H2.91667C2.82222 5.83333 2.74306 5.86493 2.67917 5.92812C2.61528 5.99118 2.58333 6.06944 2.58333 6.16292C2.58333 6.25625 2.61528 6.33576 2.67917 6.40146C2.74306 6.46715 2.82222 6.5 2.91667 6.5H10.7035C10.8219 6.5 10.9022 6.56653 10.9446 6.69958C10.9868 6.8325 10.9684 6.93854 10.8894 7.01771L8.93312 8.97396C8.81104 9.09604 8.67771 9.18646 8.53313 9.24521C8.38854 9.30396 8.23646 9.33333 8.07688 9.33333H1.17958C0.855139 9.33333 0.577431 9.21785 0.346458 8.98688C0.115486 8.7559 0 8.4782 0 8.15375ZM2.91667 3.5H6.41667C6.51111 3.5 6.59028 3.4684 6.65417 3.40521C6.71806 3.34215 6.75 3.26389 6.75 3.17042C6.75 3.07708 6.71806 2.99757 6.65417 2.93187C6.59028 2.86618 6.51111 2.83333 6.41667 2.83333H2.91667C2.82222 2.83333 2.74306 2.86493 2.67917 2.92812C2.61528 2.99118 2.58333 3.06944 2.58333 3.16292C2.58333 3.25625 2.61528 3.33576 2.67917 3.40146C2.74306 3.46715 2.82222 3.5 2.91667 3.5ZM13.891 6.28042L13.3798 5.76917L13.9277 5.20104C13.9849 5.14076 14.0478 5.11063 14.1165 5.11063C14.1852 5.11063 14.2474 5.14 14.3029 5.19875L14.4525 5.35375C14.5033 5.40639 14.5288 5.46424 14.5288 5.52729C14.5288 5.59035 14.4986 5.65201 14.4383 5.71229L13.891 6.28042Z" fill="#1C8CF4"/>
</svg>
