<svg width="20" height="20" viewBox="0 0 20 20" fill="none" xmlns="http://www.w3.org/2000/svg">
<path d="M12.4302 8.46128C13.0835 7.7853 13.4102 6.9651 13.4102 6.00065V3.50065H6.58979V6.00065C6.58979 6.9676 6.91646 7.78836 7.56979 8.46294C8.22299 9.13767 9.03306 9.47503 10 9.47503C10.9669 9.47503 11.777 9.13711 12.4302 8.46128ZM5.17271 17.1673C5.07841 17.1673 4.99827 17.1357 4.93229 17.0725C4.86632 17.0095 4.83334 16.9312 4.83334 16.8377C4.83334 16.7444 4.86528 16.6649 4.92917 16.5992C4.99306 16.5335 5.07222 16.5007 5.16667 16.5007H5.92313V14.0007C5.92313 12.9995 6.23507 12.1216 6.85896 11.3669C7.48285 10.612 8.28091 10.1566 9.25313 10.0007C8.29479 9.83398 7.50021 9.37593 6.86938 8.62648C6.23854 7.87704 5.92313 7.00176 5.92313 6.00065V3.50065H5.16667C5.07222 3.50065 4.99306 3.46905 4.92917 3.40586C4.86528 3.3428 4.83334 3.26454 4.83334 3.17107C4.83334 3.07773 4.86521 2.99822 4.92896 2.93253C4.99285 2.86683 5.07195 2.83398 5.16625 2.83398H14.8273C14.9216 2.83398 15.0017 2.86558 15.0677 2.92878C15.1337 2.99183 15.1667 3.0701 15.1667 3.16357C15.1667 3.2569 15.1347 3.33642 15.0708 3.40211C15.0069 3.4678 14.9278 3.50065 14.8333 3.50065H14.0769V6.00065C14.0769 7.00176 13.7615 7.87704 13.1306 8.62648C12.4998 9.37593 11.7052 9.83398 10.7469 10.0007C11.7191 10.1566 12.5172 10.612 13.141 11.3669C13.7649 12.1216 14.0769 12.9995 14.0769 14.0007V16.5007H14.8333C14.9278 16.5007 15.0069 16.5322 15.0708 16.5954C15.1347 16.6585 15.1667 16.7368 15.1667 16.8302C15.1667 16.9236 15.1348 17.0031 15.071 17.0688C15.0072 17.1345 14.9281 17.1673 14.8338 17.1673H5.17271Z" fill="#1C8CF4"/>
</svg>
