<svg width="16" height="15" viewBox="0 0 16 15" fill="none" xmlns="http://www.w3.org/2000/svg">
<path d="M6.62979 8.78506L5.09125 7.25152C5.01333 7.17346 4.9359 7.1318 4.85896 7.12652C4.78201 7.1211 4.70458 7.15742 4.62667 7.23548C4.53792 7.32409 4.49354 7.40499 4.49354 7.47818C4.49354 7.55138 4.53792 7.63228 4.62667 7.72089L6.22104 9.31548C6.34188 9.43617 6.47813 9.49652 6.62979 9.49652C6.78146 9.49652 6.91771 9.43617 7.03854 9.31548L10.7579 5.59589C10.8253 5.52867 10.8643 5.45041 10.875 5.3611C10.8857 5.27193 10.8467 5.18839 10.7579 5.11048C10.68 5.03242 10.6052 4.9961 10.5335 5.00152C10.462 5.0068 10.3873 5.04846 10.3094 5.12652L6.62979 8.78506ZM5.02083 14.2932L3.90375 12.4807L1.83646 12.0238C1.68479 11.9928 1.56674 11.9178 1.48229 11.7986C1.39799 11.6796 1.36438 11.5442 1.38146 11.3924L1.55771 9.26256L0.155417 7.70485C0.0518057 7.58416 0 7.44957 0 7.3011C0 7.15263 0.0518057 7.01805 0.155417 6.89735L1.55771 5.33964L1.38146 3.20985C1.36438 3.05805 1.39799 2.92263 1.48229 2.8036C1.56674 2.68443 1.68479 2.60936 1.83646 2.57839L3.90375 2.12152L5.02083 0.309018C5.09667 0.188323 5.2 0.0994348 5.33083 0.0423514C5.46181 -0.0148708 5.60153 -0.0141072 5.75 0.0446428L7.69229 0.886101L9.63458 0.0446428C9.78306 -0.0141072 9.92278 -0.0148708 10.0538 0.0423514C10.1846 0.0994348 10.2879 0.188323 10.3638 0.309018L11.4808 2.12152L13.5481 2.57839C13.6998 2.60936 13.8178 2.68443 13.9023 2.8036C13.9866 2.92263 14.0202 3.05805 14.0031 3.20985L13.8269 5.33964L15.2292 6.89735C15.3328 7.01805 15.3846 7.15263 15.3846 7.3011C15.3846 7.44957 15.3328 7.58416 15.2292 7.70485L13.8269 9.26256L14.0031 11.3924C14.0202 11.5442 13.9866 11.6796 13.9023 11.7986C13.8178 11.9178 13.6998 11.9928 13.5481 12.0238L11.4808 12.4807L10.3638 14.2932C10.2879 14.4139 10.1846 14.5028 10.0538 14.5599C9.92278 14.6171 9.78306 14.6163 9.63458 14.5576L7.69229 13.7161L5.75 14.5576C5.60153 14.6163 5.46181 14.6171 5.33083 14.5599C5.2 14.5028 5.09667 14.4139 5.02083 14.2932Z" fill="#1C8CF4"/>
</svg>
