<svg width="16" height="16" viewBox="0 0 16 16" fill="none" xmlns="http://www.w3.org/2000/svg">
<path d="M7.33333 1.55556V0.666667C7.33333 0.481481 7.39815 0.324074 7.52778 0.194444C7.65741 0.0648148 7.81482 0 8 0C8.18519 0 8.34259 0.0648148 8.47222 0.194444C8.60185 0.324074 8.66667 0.481481 8.66667 0.666667V1.55556C8.66667 1.74074 8.60185 1.89815 8.47222 2.02778C8.34259 2.15741 8.18519 2.22222 8 2.22222C7.81482 2.22222 7.65741 2.15741 7.52778 2.02778C7.39815 1.89815 7.33333 1.74074 7.33333 1.55556ZM7.33333 15.3333V14.4444C7.33333 14.2593 7.39815 14.1019 7.52778 13.9722C7.65741 13.8426 7.81482 13.7778 8 13.7778C8.18519 13.7778 8.34259 13.8426 8.47222 13.9722C8.60185 14.1019 8.66667 14.2593 8.66667 14.4444V15.3333C8.66667 15.5185 8.60185 15.6759 8.47222 15.8056C8.34259 15.9352 8.18519 16 8 16C7.81482 16 7.65741 15.9352 7.52778 15.8056C7.39815 15.6759 7.33333 15.5185 7.33333 15.3333ZM15.3333 8.66667H14.4444C14.2593 8.66667 14.1019 8.60185 13.9722 8.47222C13.8426 8.34259 13.7778 8.18519 13.7778 8C13.7778 7.81482 13.8426 7.65741 13.9722 7.52778C14.1019 7.39815 14.2593 7.33333 14.4444 7.33333H15.3333C15.5185 7.33333 15.6759 7.39815 15.8056 7.52778C15.9352 7.65741 16 7.81482 16 8C16 8.18519 15.9352 8.34259 15.8056 8.47222C15.6759 8.60185 15.5185 8.66667 15.3333 8.66667ZM1.55556 8.66667H0.666667C0.481481 8.66667 0.324074 8.60185 0.194444 8.47222C0.0648148 8.34259 0 8.18519 0 8C0 7.81482 0.0648148 7.65741 0.194444 7.52778C0.324074 7.39815 0.481481 7.33333 0.666667 7.33333H1.55556C1.74074 7.33333 1.89815 7.39815 2.02778 7.52778C2.15741 7.65741 2.22222 7.81482 2.22222 8C2.22222 8.18519 2.15741 8.34259 2.02778 8.47222C1.89815 8.60185 1.74074 8.66667 1.55556 8.66667ZM13.6481 3.33333L13.0185 3.92593C12.8827 4.06173 12.7253 4.12654 12.5463 4.12037C12.3673 4.1142 12.2099 4.04321 12.0741 3.90741C11.9383 3.77161 11.8704 3.61728 11.8704 3.44444C11.8704 3.27161 11.9383 3.11728 12.0741 2.98148L12.6852 2.33333C12.821 2.19753 12.9846 2.12963 13.1759 2.12963C13.3673 2.12963 13.5309 2.19753 13.6667 2.33333C13.8025 2.46914 13.8673 2.6358 13.8611 2.83333C13.8549 3.03086 13.784 3.19753 13.6481 3.33333ZM3.92593 13.0185L3.33333 13.6481C3.19753 13.784 3.03395 13.8519 2.84259 13.8519C2.65123 13.8519 2.48765 13.784 2.35185 13.6481C2.21605 13.5123 2.15123 13.3457 2.15741 13.1481C2.16358 12.9506 2.23457 12.784 2.37037 12.6481L2.98148 12.0741C3.11728 11.9383 3.27469 11.8735 3.4537 11.8796C3.63272 11.8858 3.79012 11.9568 3.92593 12.0926C4.06173 12.2284 4.12963 12.3827 4.12963 12.5556C4.12963 12.7284 4.06173 12.8827 3.92593 13.0185ZM12.6667 13.6296L12.0741 13.0185C11.9383 12.8827 11.8735 12.7253 11.8796 12.5463C11.8858 12.3673 11.9568 12.2099 12.0926 12.0741C12.2284 11.9383 12.3827 11.8673 12.5556 11.8611C12.7284 11.8549 12.8827 11.9198 13.0185 12.0556L13.6667 12.6667C13.8025 12.8025 13.8704 12.966 13.8704 13.1574C13.8704 13.3488 13.8025 13.5123 13.6667 13.6481C13.5309 13.784 13.3642 13.8488 13.1667 13.8426C12.9691 13.8364 12.8025 13.7654 12.6667 13.6296ZM2.98148 3.92593L2.35185 3.31481C2.21605 3.17901 2.14506 3.01852 2.13889 2.83333C2.13272 2.64815 2.19753 2.48765 2.33333 2.35185C2.46914 2.21605 2.63889 2.14506 2.84259 2.13889C3.0463 2.13272 3.21605 2.2037 3.35185 2.35185L3.94444 2.98148C4.0679 3.11728 4.12654 3.27469 4.12037 3.4537C4.1142 3.63272 4.04321 3.79012 3.90741 3.92593C3.77161 4.06173 3.61728 4.12963 3.44444 4.12963C3.27161 4.12963 3.11728 4.06173 2.98148 3.92593ZM4.85185 11.1481C3.98765 10.284 3.55556 9.23457 3.55556 8C3.55556 6.76543 3.98765 5.71605 4.85185 4.85185C5.71605 3.98765 6.76543 3.55556 8 3.55556C9.23457 3.55556 10.284 3.98765 11.1481 4.85185C12.0123 5.71605 12.4444 6.76543 12.4444 8C12.4444 9.23457 12.0123 10.284 11.1481 11.1481C10.284 12.0123 9.23457 12.4444 8 12.4444C6.76543 12.4444 5.71605 12.0123 4.85185 11.1481Z" fill="#BADAFF"/>
</svg>
