<svg width="40" height="40" viewBox="0 0 40 40" fill="none" xmlns="http://www.w3.org/2000/svg">
<path d="M15.3201 13.6753V11.5816H29.6793V13.6753H15.3201ZM15.3201 18.4832V16.3891H29.6793V18.4832H15.3201ZM20.2776 35.8337H9.70051C8.62329 35.8337 7.7094 35.4584 6.95884 34.7078C6.20829 33.9573 5.83301 33.0434 5.83301 31.9662V26.8595H10.833V4.16699H34.1663V18.6691C33.8066 18.6457 33.4515 18.6609 33.1009 18.7145C32.7504 18.7684 32.4075 18.858 32.0722 18.9832V6.26116H12.9272V26.8595H23.4418L21.348 28.9532H7.92717V31.9662C7.92717 32.4687 8.09773 32.8899 8.43884 33.2299C8.77967 33.5696 9.19092 33.7395 9.67259 33.7395H20.2776V35.8337ZM23.5255 35.8337V31.4299L32.5734 22.4232C32.7806 22.216 33.005 22.0702 33.2463 21.9857C33.4877 21.9016 33.7293 21.8595 33.9709 21.8595C34.2293 21.8595 34.4819 21.9085 34.7288 22.0066C34.9755 22.1049 35.1972 22.2524 35.3938 22.4491L36.9355 24.0066C37.1263 24.2141 37.2681 24.4385 37.3609 24.6799C37.4534 24.9213 37.4997 25.1627 37.4997 25.4041C37.4997 25.6455 37.4501 25.8912 37.3509 26.1412C37.252 26.3912 37.1087 26.6198 36.9209 26.827L27.9293 35.8337H23.5255ZM25.5126 33.8466H27.0959L32.5059 28.4103L31.7401 27.6187L30.9643 26.837L25.5126 32.2632V33.8466ZM31.7401 27.6187L30.9643 26.837L32.5059 28.4103L31.7401 27.6187Z" fill="#64748B"/>
</svg>
