<svg width="40" height="40" viewBox="0 0 40 40" fill="none" xmlns="http://www.w3.org/2000/svg">
<path d="M18.2251 22.8982L26.7914 14.3674L25.2914 12.8844L18.2193 19.9678L14.6835 16.4261L13.1922 17.9007L18.2251 22.8982ZM2.30762 33.7178V31.6236H37.6918V33.7178H2.30762ZM6.77345 29.5511C6.05706 29.5511 5.44345 29.2957 4.93262 28.7849C4.42178 28.274 4.16637 27.6606 4.16637 26.9444V8.82486C4.16637 8.10847 4.42178 7.49486 4.93262 6.98402C5.44345 6.47319 6.05706 6.21777 6.77345 6.21777H33.226C33.9423 6.21777 34.556 6.47319 35.0668 6.98402C35.5776 7.49486 35.833 8.10847 35.833 8.82486V26.9444C35.833 27.6606 35.5776 28.274 35.0668 28.7849C34.556 29.2957 33.9423 29.5511 33.226 29.5511H6.77345ZM6.77345 27.4574H33.226C33.3543 27.4574 33.4719 27.4039 33.5789 27.2969C33.6855 27.19 33.7389 27.0725 33.7389 26.9444V8.82486C33.7389 8.69652 33.6855 8.57889 33.5789 8.47194C33.4719 8.36528 33.3543 8.31194 33.226 8.31194H6.77345C6.64512 8.31194 6.52748 8.36528 6.42053 8.47194C6.31387 8.57889 6.26053 8.69652 6.26053 8.82486V26.9444C6.26053 27.0725 6.31387 27.19 6.42053 27.2969C6.52748 27.4039 6.64512 27.4574 6.77345 27.4574Z" fill="#64748B"/>
</svg>
