<svg width="40" height="40" viewBox="0 0 40 40" fill="none" xmlns="http://www.w3.org/2000/svg">
<path d="M4.69917 34.9513C4.23306 34.4851 4 33.9149 4 33.2404C4 32.566 4.23306 31.9957 4.69917 31.5296C5.16528 31.0632 5.73556 30.83 6.41 30.83C7.08444 30.83 7.65472 31.0632 8.12083 31.5296C8.58722 31.9957 8.82042 32.566 8.82042 33.2404C8.82042 33.9149 8.58722 34.4851 8.12083 34.9513C7.65472 35.4174 7.08444 35.6504 6.41 35.6504C5.73556 35.6504 5.16528 35.4174 4.69917 34.9513ZM4.69917 24.6692C4.23306 24.2031 4 23.6328 4 22.9583C4 22.2839 4.23306 21.7136 4.69917 21.2475C5.16528 20.7811 5.73556 20.5479 6.41 20.5479C7.08444 20.5479 7.65472 20.7811 8.12083 21.2475C8.58722 21.7136 8.82042 22.2839 8.82042 22.9583C8.82042 23.6328 8.58722 24.2031 8.12083 24.6692C7.65472 25.1356 7.08444 25.3687 6.41 25.3687C5.73556 25.3687 5.16528 25.1356 4.69917 24.6692ZM4.69917 14.3871C4.23306 13.921 4 13.3507 4 12.6762C4 12.0018 4.23306 11.4315 4.69917 10.9654C5.16528 10.4993 5.73556 10.2663 6.41 10.2663C7.08444 10.2663 7.65472 10.4993 8.12083 10.9654C8.58722 11.4315 8.82042 12.0018 8.82042 12.6762C8.82042 13.3507 8.58722 13.921 8.12083 14.3871C7.65472 14.8535 7.08444 15.0867 6.41 15.0867C5.73556 15.0867 5.16528 14.8535 4.69917 14.3871ZM14.9812 34.9513C14.5149 34.4851 14.2817 33.9149 14.2817 33.2404C14.2817 32.566 14.5149 31.9957 14.9812 31.5296C15.4474 31.0632 16.0176 30.83 16.6921 30.83C17.3665 30.83 17.9368 31.0632 18.4029 31.5296C18.8693 31.9957 19.1025 32.566 19.1025 33.2404C19.1025 33.9149 18.8693 34.4851 18.4029 34.9513C17.9368 35.4174 17.3665 35.6504 16.6921 35.6504C16.0176 35.6504 15.4474 35.4174 14.9812 34.9513ZM14.9812 24.6692C14.5149 24.2031 14.2817 23.6328 14.2817 22.9583C14.2817 22.2839 14.5149 21.7136 14.9812 21.2475C15.4474 20.7811 16.0176 20.5479 16.6921 20.5479C17.3665 20.5479 17.9368 20.7811 18.4029 21.2475C18.8693 21.7136 19.1025 22.2839 19.1025 22.9583C19.1025 23.6328 18.8693 24.2031 18.4029 24.6692C17.9368 25.1356 17.3665 25.3687 16.6921 25.3687C16.0176 25.3687 15.4474 25.1356 14.9812 24.6692ZM16.6921 15.0867C16.0176 15.0867 15.4474 14.8535 14.9812 14.3871C14.5149 13.921 14.2817 13.3507 14.2817 12.6762C14.2817 11.9904 14.5158 11.4172 14.9842 10.9567C15.4525 10.4964 16.0214 10.2663 16.6908 10.2663C16.7736 10.2663 16.8544 10.2736 16.9333 10.2883C17.0125 10.3033 17.0878 10.3222 17.1592 10.345C17.1247 10.5047 17.1033 10.6611 17.095 10.8142C17.0864 10.9672 17.0821 11.1264 17.0821 11.2917C17.0821 11.9183 17.1268 12.5278 17.2163 13.12C17.3054 13.7122 17.4438 14.2926 17.6313 14.8612C17.4774 14.9474 17.3233 15.0064 17.1692 15.0383C17.015 15.0706 16.856 15.0867 16.6921 15.0867ZM22.8396 16.8108C21.3801 15.3514 20.6504 13.5811 20.6504 11.5C20.6504 9.41889 21.3801 7.64861 22.8396 6.18917C24.299 4.72972 26.0693 4 28.1504 4C30.2315 4 32.0018 4.72972 33.4613 6.18917C34.9207 7.64861 35.6504 9.41889 35.6504 11.5C35.6504 13.5811 34.9207 15.3514 33.4613 16.8108C32.0018 18.2703 30.2315 19 28.1504 19C26.0693 19 24.299 18.2703 22.8396 16.8108ZM25.2633 34.9513C24.7969 34.4851 24.5637 33.9149 24.5637 33.2404C24.5637 32.566 24.7969 31.9957 25.2633 31.5296C25.7294 31.0632 26.2997 30.83 26.9742 30.83C27.6486 30.83 28.2189 31.0632 28.685 31.5296C29.1511 31.9957 29.3842 32.566 29.3842 33.2404C29.3842 33.9149 29.1511 34.4851 28.685 34.9513C28.2189 35.4174 27.6486 35.6504 26.9742 35.6504C26.2997 35.6504 25.7294 35.4174 25.2633 34.9513ZM26.9742 25.3687C26.2997 25.3687 25.7294 25.1356 25.2633 24.6692C24.7969 24.2031 24.5637 23.6328 24.5637 22.9583C24.5637 22.7944 24.5799 22.6336 24.6121 22.4758C24.644 22.3181 24.7031 22.1658 24.7892 22.0192C25.3578 22.2067 25.9382 22.345 26.5304 22.4342C27.1226 22.5236 27.7321 22.5683 28.3587 22.5683C28.524 22.5683 28.6832 22.564 28.8363 22.5554C28.9893 22.5471 29.1457 22.5257 29.3054 22.4913C29.3282 22.5626 29.3471 22.6379 29.3621 22.7171C29.3768 22.796 29.3842 22.8768 29.3842 22.9596C29.3842 23.629 29.154 24.1979 28.6937 24.6663C28.2332 25.1346 27.66 25.3687 26.9742 25.3687ZM28.7175 15.8171C28.8736 15.6613 28.9517 15.4722 28.9517 15.25C28.9517 15.0278 28.8736 14.8386 28.7175 14.6825C28.5617 14.5267 28.3726 14.4488 28.1504 14.4488C27.9282 14.4488 27.739 14.5267 27.5829 14.6825C27.4271 14.8386 27.3492 15.0278 27.3492 15.25C27.3492 15.4722 27.4271 15.6613 27.5829 15.8171C27.739 15.9732 27.9282 16.0512 28.1504 16.0512C28.3726 16.0512 28.5617 15.9732 28.7175 15.8171ZM27.4133 12.8463H28.8875V7.01292H27.4133V12.8463Z" fill="white"/>
</svg>
