<svg width="40" height="40" viewBox="0 0 40 40" fill="none" xmlns="http://www.w3.org/2000/svg">
<path d="M3.94238 34.2946V5.12793H19.5724V11.8904H36.0574V34.2946H3.94238ZM6.03613 32.2004H10.7157V27.5208H6.03613V32.2004ZM6.03613 25.4271H10.7157V20.7579H6.03613V25.4271ZM6.03613 18.6642H10.7157V13.9846H6.03613V18.6642ZM6.03613 11.8904H10.7157V7.22168H6.03613V11.8904ZM12.8099 32.2004H17.4786V27.5208H12.8099V32.2004ZM12.8099 25.4271H17.4786V20.7579H12.8099V25.4271ZM12.8099 18.6642H17.4786V13.9846H12.8099V18.6642ZM12.8099 11.8904H17.4786V7.22168H12.8099V11.8904ZM19.5724 32.2004H33.9636V13.9846H19.5724V18.6642H23.2266V20.7579H19.5724V25.4271H23.2266V27.5208H19.5724V32.2004ZM27.3932 20.7579V18.6642H29.487V20.7579H27.3932ZM27.3932 27.5208V25.4271H29.487V27.5208H27.3932Z" fill="#64748B"/>
</svg>
