<svg width="40" height="40" viewBox="0 0 40 40" fill="none" xmlns="http://www.w3.org/2000/svg">
<path d="M6.60708 33C5.89292 33 5.27986 32.744 4.76792 32.2321C4.25597 31.7201 4 31.1071 4 30.3929V10.6071C4 9.89292 4.25597 9.27986 4.76792 8.76792C5.27986 8.25597 5.89292 8 6.60708 8H33.0596C33.7738 8 34.3868 8.25597 34.8988 8.76792C35.4107 9.27986 35.6667 9.89292 35.6667 10.6071V30.3929C35.6667 31.1071 35.4107 31.7201 34.8988 32.2321C34.3868 32.744 33.7738 33 33.0596 33H6.60708ZM6.60708 30.9058H33.0596C33.2093 30.9058 33.3322 30.8578 33.4283 30.7617C33.5244 30.6656 33.5725 30.5426 33.5725 30.3929V10.6071C33.5725 10.4574 33.5244 10.3344 33.4283 10.2383C33.3322 10.1422 33.2093 10.0942 33.0596 10.0942H6.60708C6.45736 10.0942 6.33444 10.1422 6.23833 10.2383C6.14222 10.3344 6.09417 10.4574 6.09417 10.6071V30.3929C6.09417 30.5426 6.14222 30.6656 6.23833 30.7617C6.33444 30.8578 6.45736 30.9058 6.60708 30.9058ZM18.7863 27.6558H20.8804L21.0963 25.9958C21.6382 25.8561 22.1522 25.65 22.6383 25.3775C23.1244 25.1053 23.5626 24.7722 23.9529 24.3783L25.5008 25.0821L26.625 23.4038L25.2008 22.1987C25.3439 21.629 25.4154 21.0628 25.4154 20.5C25.4154 19.9372 25.3439 19.371 25.2008 18.8012L26.625 17.5963L25.5008 15.9179L23.9529 16.6217C23.5626 16.2278 23.1244 15.8947 22.6383 15.6225C22.1522 15.35 21.6382 15.1439 21.0963 15.0042L20.8804 13.3442H18.7863L18.5704 15.0042C18.0285 15.1439 17.519 15.35 17.0421 15.6225C16.5654 15.8947 16.1226 16.2278 15.7138 16.6217L14.1658 15.9179L13.0417 17.5963L14.4658 18.8012C14.3228 19.371 14.2513 19.9372 14.2513 20.5C14.2513 21.0628 14.3228 21.629 14.4658 22.1987L13.0417 23.4038L14.1658 25.0821L15.7138 24.3783C16.1226 24.7722 16.5654 25.1053 17.0421 25.3775C17.519 25.65 18.0285 25.8561 18.5704 25.9958L18.7863 27.6558ZM17.2646 23.0688C16.564 22.3685 16.2138 21.5122 16.2138 20.5C16.2138 19.4878 16.564 18.6315 17.2646 17.9312C17.9649 17.2307 18.8211 16.8804 19.8333 16.8804C20.8456 16.8804 21.7018 17.2307 22.4021 17.9312C23.1026 18.6315 23.4529 19.4878 23.4529 20.5C23.4529 21.5122 23.1026 22.3685 22.4021 23.0688C21.7018 23.7693 20.8456 24.1196 19.8333 24.1196C18.8211 24.1196 17.9649 23.7693 17.2646 23.0688Z" fill="#64748B"/>
</svg>
