<svg width="40" height="40" viewBox="0 0 40 40" fill="none" xmlns="http://www.w3.org/2000/svg">
<path d="M18.9528 26.6666V15.427H13.9528V13.3332H26.047V15.427H21.047V26.6666H18.9528ZM2.82031 37.1795V29.2007H5.81615V10.7991H2.82031V2.82031H10.7991V5.81615H29.2007V2.82031H37.1795V10.7991H34.1836V29.2007H37.1795V37.1795H29.2007V34.1836H10.7991V37.1795H2.82031ZM10.7991 32.0895H29.2007V29.2007H32.0895V10.7991H29.2007V7.91031H10.7991V10.7991H7.91031V29.2007H10.7991V32.0895ZM4.91448 8.7049H8.7049V4.91448H4.91448V8.7049ZM31.2949 8.7049H35.0853V4.91448H31.2949V8.7049ZM31.2949 35.0853H35.0853V31.2949H31.2949V35.0853ZM4.91448 35.0853H8.7049V31.2949H4.91448V35.0853Z" fill="#64748B"/>
</svg>
