<svg width="40" height="40" viewBox="0 0 40 40" fill="none" xmlns="http://www.w3.org/2000/svg">
<path d="M28.5725 16.8971C28.2828 15.559 27.789 14.3308 27.0913 13.2125C26.3938 12.0942 25.3463 10.9211 23.9488 9.69333V14.7713H21.8546V6H30.6258V8.09375H25.3292C26.8947 9.44708 28.119 10.8681 29.0021 12.3567C29.8854 13.8453 30.4487 15.3587 30.6921 16.8971H28.5725ZM21.7754 27.72H31.6558V22.645H21.7754V27.72ZM21.5621 29.8137C21.0396 29.8137 20.5956 29.631 20.23 29.2654C19.8644 28.8999 19.6817 28.456 19.6817 27.9338V22.4317C19.6817 21.9092 19.8644 21.4651 20.23 21.0996C20.5956 20.734 21.0396 20.5512 21.5621 20.5512H31.8696C32.3918 20.5512 32.8358 20.734 33.2017 21.0996C33.5672 21.4651 33.75 21.9092 33.75 22.4317V27.9338C33.75 28.456 33.5672 28.8999 33.2017 29.2654C32.8358 29.631 32.3918 29.8137 31.8696 29.8137H21.5621ZM5.26917 31.5767V29.4829H10.5383C8.66389 27.9515 7.27222 26.3457 6.36333 24.6654C5.45444 22.9851 5 21.0682 5 18.9146C5 16.161 5.80153 13.6399 7.40458 11.3512C9.00736 9.06292 11.1731 7.47 13.9017 6.5725V8.75625C11.9244 9.53319 10.2956 10.8475 9.015 12.6992C7.73444 14.5506 7.09417 16.6224 7.09417 18.9146C7.09417 20.6415 7.46347 22.2326 8.20208 23.6879C8.94069 25.1432 10.1889 26.5471 11.9467 27.8996V22.8054H14.0404V31.5767H5.26917ZM18.015 34.6217V32.5275H35.4167V34.6217H18.015Z" fill="white"/>
</svg>
