<svg width="40" height="40" viewBox="0 0 40 40" fill="none" xmlns="http://www.w3.org/2000/svg">
<path d="M24.3227 34.9574H34.8785V33.712C34.2188 32.9242 33.4325 32.3116 32.5198 31.8741C31.607 31.4369 30.6321 31.2182 29.5952 31.2182C28.5582 31.2182 27.5834 31.4369 26.6706 31.8741C25.7578 32.3116 24.9752 32.9242 24.3227 33.712V34.9574ZM31.2352 29.0066C31.6838 28.558 31.9081 28.0131 31.9081 27.372C31.9081 26.7312 31.6838 26.1863 31.2352 25.7374C30.7866 25.2888 30.2399 25.0645 29.5952 25.0645C28.9507 25.0645 28.4059 25.2888 27.9606 25.7374C27.5156 26.1863 27.2931 26.7312 27.2931 27.372C27.2931 28.0131 27.5156 28.558 27.9606 29.0066C28.4059 29.4555 28.9507 29.6799 29.5952 29.6799C30.2399 29.6799 30.7866 29.4555 31.2352 29.0066ZM19.9744 15.2032C18.6477 15.2032 17.5166 15.6692 16.581 16.6012C15.6455 17.5331 15.1777 18.6662 15.1777 20.0003C15.1777 21.0559 15.4652 21.9828 16.0402 22.7812C16.6155 23.5798 17.3642 24.1574 18.2864 24.5141C18.2973 24.1216 18.3205 23.7366 18.356 23.3591C18.3916 22.9819 18.4524 22.6364 18.5385 22.3228C18.1282 22.1 17.8145 21.7756 17.5973 21.3495C17.38 20.9237 17.2714 20.4739 17.2714 20.0003C17.2714 19.2531 17.5352 18.6159 18.0627 18.0887C18.5902 17.5612 19.2274 17.2974 19.9744 17.2974C20.4538 17.2974 20.8998 17.4125 21.3123 17.6428C21.7245 17.8734 22.0539 18.1952 22.3006 18.6082C22.5225 18.5285 22.7549 18.4694 22.9977 18.4307C23.2402 18.3924 23.4807 18.3732 23.7194 18.3732H24.4564C24.1273 17.4452 23.5566 16.6849 22.7444 16.0924C21.9319 15.4996 21.0085 15.2032 19.9744 15.2032ZM16.5152 35.8337L15.8014 30.8016C15.2723 30.6221 14.7102 30.3639 14.1152 30.027C13.5199 29.6901 13.0018 29.3321 12.561 28.9532L7.88685 31.0303L4.38477 24.8828L8.54852 21.792C8.49852 21.5142 8.46268 21.2182 8.44102 20.9041C8.41935 20.5899 8.40852 20.2939 8.40852 20.0162C8.40852 19.7492 8.41935 19.4596 8.44102 19.1474C8.46268 18.8349 8.49852 18.522 8.54852 18.2087L4.38477 15.107L7.88685 9.00241L12.5452 11.0528C13.018 10.6703 13.5427 10.3132 14.1193 9.98158C14.696 9.65019 15.2514 9.39866 15.7856 9.22699L16.5152 4.16699H23.4852L24.1989 9.21491C24.7745 9.42658 25.3341 9.68463 25.8777 9.98908C26.4216 10.2935 26.926 10.6481 27.391 11.0528L32.1239 9.00241L35.6156 15.107L31.4885 18.2053C31.4919 18.2567 31.4953 18.2856 31.4989 18.292C31.5025 18.2984 31.5098 18.3123 31.5206 18.3337H29.246C29.2182 18.172 29.1913 18.0135 29.1652 17.8582C29.1394 17.703 29.1021 17.5445 29.0535 17.3828L32.8594 14.5474L31.201 11.6349L26.871 13.4799C26.2946 12.8424 25.601 12.2802 24.7902 11.7932C23.9794 11.306 23.1491 10.9914 22.2994 10.8495L21.746 6.26116H18.2631L17.7118 10.8337C16.813 11.0231 15.9846 11.3355 15.2268 11.7707C14.4688 12.2057 13.7573 12.7673 13.0923 13.4553L8.79935 11.6349L7.14102 14.5474L10.9093 17.3262C10.7818 17.7514 10.6875 18.1863 10.6264 18.6307C10.565 19.0752 10.5343 19.537 10.5343 20.0162C10.5343 20.4687 10.565 20.9117 10.6264 21.3453C10.6875 21.7792 10.7766 22.2141 10.8935 22.6499L7.14102 25.4532L8.79935 28.3657L13.076 26.5366C13.7655 27.2388 14.5531 27.8209 15.4389 28.2828C16.3245 28.7448 17.263 29.0782 18.2544 29.2832V35.8337H16.5152ZM24.216 37.372C23.568 37.372 23.0213 37.1477 22.576 36.6991C22.131 36.2502 21.9085 35.7053 21.9085 35.0645V24.2953C21.9085 23.6542 22.131 23.1094 22.576 22.6607C23.0213 22.2119 23.568 21.9874 24.216 21.9874H34.9852C35.6263 21.9874 36.1712 22.2119 36.6198 22.6607C37.0684 23.1094 37.2927 23.6542 37.2927 24.2953V35.0645C37.2927 35.7053 37.0684 36.2502 36.6198 36.6991C36.1712 37.1477 35.6263 37.372 34.9852 37.372H24.216Z" fill="white"/>
</svg>
