<svg width="40" height="40" viewBox="0 0 40 40" fill="none" xmlns="http://www.w3.org/2000/svg">
<path d="M12.5749 20.0746V17.9808H10.4812V20.0746H12.5749ZM19.7257 20.0746C19.933 19.6788 20.157 19.3118 20.3978 18.9738C20.6387 18.636 20.898 18.305 21.1757 17.9808H15.5024V20.0746H19.7257ZM18.4491 25.5771C18.4377 25.5046 18.4324 25.4314 18.4332 25.3575C18.4338 25.2833 18.4341 25.2065 18.4341 25.1271C18.4341 24.8376 18.4412 24.5583 18.4553 24.2892C18.4698 24.0203 18.4994 23.7515 18.5441 23.4829H10.4812V25.5771H18.4491ZM21.4682 32.5H6.77408C6.05991 32.5 5.44685 32.244 4.93491 31.7321C4.42296 31.2201 4.16699 30.6071 4.16699 29.8929V10.1071C4.16699 9.39292 4.42296 8.77986 4.93491 8.26792C5.44685 7.75597 6.05991 7.5 6.77408 7.5H33.2266C33.9407 7.5 34.5538 7.75597 35.0657 8.26792C35.5777 8.77986 35.8337 9.39292 35.8337 10.1071V16.9958C35.5095 16.7058 35.1785 16.4446 34.8407 16.2121C34.5027 15.9796 34.1356 15.7682 33.7395 15.5779V10.1071C33.7395 9.95736 33.6914 9.83444 33.5953 9.73833C33.4992 9.64222 33.3763 9.59417 33.2266 9.59417H6.77408C6.62435 9.59417 6.50144 9.64222 6.40533 9.73833C6.30921 9.83444 6.26116 9.95736 6.26116 10.1071V29.8929C6.26116 30.0426 6.30921 30.1656 6.40533 30.2617C6.50144 30.3578 6.62435 30.4058 6.77408 30.4058H19.8412C20.0648 30.8019 20.3137 31.1736 20.5878 31.5208C20.8623 31.8681 21.1557 32.1944 21.4682 32.5ZM29.9949 32.5H28.1424L27.8157 30.1646C27.3355 30.0471 26.8835 29.8725 26.4599 29.6408C26.036 29.4094 25.6453 29.1128 25.2878 28.7508L23.2374 29.3612L22.3507 27.875L24.1028 26.375C23.972 25.9789 23.9066 25.5629 23.9066 25.1271C23.9066 24.6913 23.972 24.2718 24.1028 23.8688L22.367 22.3471L23.2537 20.8613L25.2878 21.4871C25.6348 21.1182 26.0227 20.8207 26.4516 20.5946C26.8807 20.3685 27.3355 20.1967 27.8157 20.0792L28.1424 17.7437H29.9949L30.3057 20.0792C30.786 20.1967 31.2403 20.3696 31.6687 20.5979C32.097 20.8263 32.4853 21.1249 32.8337 21.4938L34.8678 20.8613L35.7545 22.3538L34.0182 23.875C34.1494 24.2781 34.2149 24.6971 34.2149 25.1321C34.2149 25.5671 34.1494 25.9814 34.0182 26.375L35.7707 27.875L34.8837 29.3612L32.8337 28.7508C32.4762 29.1128 32.0855 29.4094 31.6616 29.6408C31.238 29.8725 30.786 30.0471 30.3057 30.1646L29.9949 32.5ZM29.0474 28.3004C29.9285 28.3004 30.6775 27.99 31.2945 27.3692C31.9117 26.7483 32.2203 26.001 32.2203 25.1271C32.2203 24.246 31.9117 23.4969 31.2945 22.88C30.6775 22.2628 29.9303 21.9542 29.0528 21.9542C28.1753 21.9542 27.4262 22.2628 26.8053 22.88C26.1848 23.4969 25.8745 24.2442 25.8745 25.1217C25.8745 25.9992 26.1848 26.7483 26.8053 27.3692C27.4262 27.99 28.1735 28.3004 29.0474 28.3004Z" fill="#1C8CF4"/>
</svg>
